<?xml version="1.0" encoding="utf-8"?>
<!-- Generator: Adobe Illustrator 16.0.0, SVG Export Plug-In . SVG Version: 6.00 Build 0)  -->
<!DOCTYPE svg PUBLIC "-//W3C//DTD SVG 1.1//EN" "http://www.w3.org/Graphics/SVG/1.1/DTD/svg11.dtd">
<svg version="1.1" id="Layer_1" xmlns="http://www.w3.org/2000/svg" xmlns:xlink="http://www.w3.org/1999/xlink" x="0px" y="0px"
	 width="111px" height="45px" viewBox="0 0 111 45" enable-background="new 0 0 111 45" xml:space="preserve">
<path fill="#A7A7A7" d="M55.366,11.848h0.223c2.106,7.564,9.43,10.011,13.424,10.011c4.218,0,10.653-1.558,13.094-2.447
	c2.218-0.892,4.217-1.335,5.327-1.335c3.104,0,5.768,2.225,5.768,6.453c0,4.003-2.885,6.229-5.991,6.229
	c-1.996,0-2.886-1.334-3.327-2.447c2.219,0.22,2.66-1.336,2.66-2.446c0-1.113-0.664-2.448-2.441-2.448
	c-1.996,0-3.327,1.335-3.327,3.782c0,2.448,2.44,5.784,6.435,5.784c3.995,0,7.989-2.447,7.989-8.454
	c0-6.229-4.439-8.457-7.989-8.457c-1.108,0-3.108,0.669-4.881,1.335l-0.223-0.223C92.76,6.062,96.532,2.056,102.301,2.056
	c3.55,0,6.436,2.228,6.436,6.23c0,4.451-3.108,4.674-4.217,4.674c-0.665,0-1.332-0.445-1.554-1.112
	c0.222-0.223,1.332-0.447,1.332-2.227c0-1.779-1.332-2.447-2.661-2.447c-1.331,0-3.108,1.112-3.108,3.782
	c0,2.447,2.218,4.674,4.882,4.674c6.657,0,7.544-5.118,7.544-7.344c0-1.778-1.108-8.231-8.876-8.231
	c-8.209,0-14.645,9.345-19.972,14.463l-0.222-0.223c0.887-1.78,1.11-3.559,1.11-5.563c0-2.001-1.333-8.453-7.768-8.453
	c-5.322,0-7.322,4.228-7.322,6.452c0,2.891,2,6.229,5.327,6.229c2.885,0,3.995-2.004,3.995-3.339c0-1.555-0.667-3.113-2.218-3.113
	c-1.554,0-2.221,1.112-2.221,2.67c-0.22,0.223,0,0.89,0,1.335c-0.886,0-2.882-0.668-2.882-3.782c0-2.67,2.439-4.674,5.103-4.674
	c2.883,0,5.99,1.558,5.99,6.899c0,5.116-2.218,10.681-11.984,10.681c-3.105,0-11.759-2.227-11.759-12.016
	c0-4.893,2.441-6.006,4.214-6.006c1.554,0,2.886,0.889,2.886,2.447c0,1.112-0.665,2.001-1.554,2.225
	c0-0.889-0.665-1.779-1.333-1.779c-0.886,0-1.551,1.112-1.551,2.001c0,0.889,0.665,2.224,2.441,2.224
	c1.332,0,3.773-1.112,3.773-4.005c0-3.56-2.441-4.671-4.662-4.671c-2.663,0-5.104,1.557-5.88,5.117h-0.222
	c-0.776-3.56-3.217-5.117-6.102-5.117c-1.996,0-4.44,1.112-4.44,4.671c0,2.893,2.444,4.229,3.775,4.229
	c1.773,0,2.441-1.559,2.441-2.447c0-0.889-0.667-2.001-1.554-2.001c-0.887,0-1.332,0.89-1.332,1.779
	c-0.886-0.223-1.553-1.113-1.553-2.001c0-1.781,1.109-2.67,2.663-2.67c1.996,0,4.437,1.113,4.437,6.006
	c0,9.789-8.654,12.016-11.981,12.016c-9.542,0-11.763-5.564-11.763-10.458c0-5.563,3.108-7.121,5.994-7.121
	c2.661,0,5.104,2.004,5.104,4.674c0,3.114-2.222,3.782-3.107,3.782c0.223-0.445,0.223-0.892,0.223-1.335
	c0-1.558-0.667-2.67-2.219-2.67c-1.776,0-2.221,1.558-2.221,3.113c0,1.334,1.109,3.339,3.995,3.339c3.33,0,5.326-3.339,5.326-6.229
	c0-2.003-1.996-6.452-7.322-6.452c-6.435,0-7.767,6.452-7.767,8.453c0,2.004,0.223,3.783,0.887,5.564l-0.223,0.223
	C23.302,9.4,17.086,0.055,8.654,0.055C0.887,0.055,0,6.508,0,8.286c0,2.227,0.887,7.344,7.322,7.344
	c2.886,0,5.104-2.227,5.104-4.674c0-2.67-1.773-3.782-3.105-3.782c-1.331,0-2.663,0.893-2.663,2.447c0,1.78,0.886,2.004,1.332,2.227
	c-0.223,0.667-0.89,1.112-1.554,1.112c-1.109,0-4.217-0.223-4.217-4.674c0-4.002,2.885-6.23,6.435-6.23
	c5.772,0,9.544,4.005,19.972,15.129l-0.219,0.223c-1.554-0.666-3.553-1.335-4.884-1.335c-3.55,0-7.765,2.227-7.765,8.457
	c0,6.007,3.992,8.454,7.765,8.454c4.217,0,6.658-3.336,6.658-5.784c0-2.446-1.332-3.781-3.328-3.781
	c-1.776,0-2.441,1.335-2.441,2.447c0,1.111,0.442,2.667,2.664,2.446c-0.445,1.113-1.332,2.447-3.553,2.447
	c-2.883,0-5.769-2.227-5.769-6.229c0-4.228,2.663-6.453,5.769-6.453c1.108,0,3.108,0.444,5.327,1.335
	c2.441,0.889,8.876,2.669,12.872,2.669c4.217,0,11.54-2.669,13.758-10.234L55.366,11.848L55.366,11.848z M41.72,35.431
	c4.658,0,9.321-9.347,9.321-12.682c0-0.446,0-0.89-0.222-1.336c-0.89,1.559-2.664,3.783-5.326,5.119
	c-2.886,1.334-6.881,2.224-6.881,5.563C38.611,33.873,39.943,35.431,41.72,35.431z M59.695,37.654c0-2.889-2.441-8.899-2.885-11.346
	c-0.446-2.224-1.332-8.454-1.332-8.454s-0.887,6.23-1.332,8.454c-0.445,2.447-3.105,8.676-3.105,11.346
	c0,2.671,0.664,7.345,4.437,7.345C59.25,45,59.695,40.325,59.695,37.654z M65.019,26.308c-2.661-1.112-4.438-3.336-5.324-4.895
	c-0.222,0.446-0.222,0.89-0.222,1.336c0,3.335,4.659,12.682,9.321,12.682c1.773,0,3.105-1.559,3.105-3.337
	C71.899,28.755,67.905,27.866,65.019,26.308z"/>
</svg>
