<?xml version="1.0" encoding="utf-8"?>
<!-- Generator: Adobe Illustrator 16.0.0, SVG Export Plug-In . SVG Version: 6.00 Build 0)  -->
<!DOCTYPE svg PUBLIC "-//W3C//DTD SVG 1.1//EN" "http://www.w3.org/Graphics/SVG/1.1/DTD/svg11.dtd">
<svg version="1.1" id="Layer_1" xmlns="http://www.w3.org/2000/svg" xmlns:xlink="http://www.w3.org/1999/xlink" x="0px" y="0px"
	 width="222px" height="90px" viewBox="0 0 222 90" enable-background="new 0 0 222 90" xml:space="preserve">
<path fill-rule="evenodd" clip-rule="evenodd" fill="#A7A7A7" d="M110.802,23.656h0.445c4.216,15.138,18.871,20.035,26.865,20.035
	c8.441,0,21.319-3.118,26.204-4.897c4.439-1.785,8.44-2.672,10.66-2.672c6.214,0,11.544,4.452,11.544,12.913
	c0,8.011-5.775,12.467-11.989,12.467c-3.994,0-5.775-2.671-6.659-4.897c4.44,0.441,5.324-2.673,5.324-4.896
	c0-2.227-1.33-4.898-4.885-4.898c-3.995,0-6.659,2.672-6.659,7.568c0,4.898,4.884,11.575,12.879,11.575
	c7.994,0,15.989-4.897,15.989-16.918c0-12.467-8.885-16.924-15.989-16.924c-2.219,0-6.22,1.339-9.77,2.672l-0.445-0.446
	C185.636,12.075,193.186,4.06,204.73,4.06c7.104,0,12.879,4.457,12.879,12.467c0,8.908-6.22,9.354-8.439,9.354
	c-1.33,0-2.666-0.892-3.11-2.225c0.444-0.446,2.664-0.894,2.664-4.457c0-3.56-2.664-4.897-5.324-4.897
	c-2.664,0-6.22,2.226-6.22,7.568c0,4.898,4.439,9.355,9.77,9.355c13.324,0,15.099-10.243,15.099-14.698
	c0-3.558-2.219-16.472-17.764-16.472c-16.429,0-29.308,18.703-39.968,28.944l-0.445-0.446c1.775-3.564,2.221-7.123,2.221-11.134
	c0-4.005-2.666-16.917-15.545-16.917c-10.652,0-14.653,8.461-14.653,12.912c0,5.785,4.001,12.467,10.66,12.467
	c5.773,0,7.994-4.011,7.994-6.682c0-3.112-1.335-6.23-4.439-6.23c-3.11,0-4.446,2.225-4.446,5.343c-0.439,0.446,0,1.78,0,2.671
	c-1.774,0-5.768-1.337-5.768-7.569c0-5.343,4.884-9.354,10.214-9.354c5.769,0,11.988,3.118,11.988,13.806
	c0,10.239-4.439,21.375-23.984,21.375c-6.214,0-23.533-4.457-23.533-24.047c0-9.793,4.885-12.021,8.435-12.021
	c3.109,0,5.775,1.78,5.775,4.898c0,2.225-1.33,4.004-3.11,4.452c0-1.78-1.329-3.56-2.665-3.56c-1.774,0-3.104,2.226-3.104,4.006
	c0,1.778,1.33,4.45,4.885,4.45c2.665,0,7.55-2.226,7.55-8.015c0-7.124-4.885-9.349-9.33-9.349c-5.33,0-10.215,3.117-11.767,10.24
	h-0.445c-1.552-7.123-6.437-10.24-12.211-10.24c-3.995,0-8.886,2.225-8.886,9.349c0,5.79,4.891,8.462,7.556,8.462
	c3.549,0,4.885-3.119,4.885-4.897c0-1.78-1.336-4.006-3.11-4.006s-2.665,1.78-2.665,3.56c-1.774-0.447-3.109-2.227-3.109-4.006
	c0-3.564,2.22-5.344,5.33-5.344c3.994,0,8.878,2.228,8.878,12.021c0,19.59-17.318,24.047-23.978,24.047
	c-19.094,0-23.54-11.135-23.54-20.929c0-11.134,6.221-14.251,11.995-14.251c5.325,0,10.214,4.011,10.214,9.354
	c0,6.231-4.446,7.569-6.219,7.569c0.445-0.891,0.445-1.784,0.445-2.671c0-3.118-1.336-5.343-4.44-5.343
	c-3.555,0-4.445,3.118-4.445,6.23c0,2.671,2.22,6.682,7.995,6.682c6.665,0,10.659-6.682,10.659-12.467
	c0-4.01-3.994-12.912-14.653-12.912c-12.879,0-15.544,12.912-15.544,16.917c0,4.011,0.445,7.569,1.775,11.134l-0.445,0.446
	C46.633,18.758,34.193,0.055,17.319,0.055C1.775,0.055,0,12.969,0,16.527c0,4.456,1.775,14.698,14.654,14.698
	c5.775,0,10.215-4.457,10.215-9.355c0-5.343-3.549-7.568-6.215-7.568c-2.664,0-5.329,1.786-5.329,4.897
	c0,3.563,1.773,4.011,2.665,4.457c-0.445,1.333-1.78,2.225-3.11,2.225c-2.219,0-8.44-0.446-8.44-9.354
	c0-8.01,5.775-12.467,12.879-12.467c11.55,0,19.1,8.015,39.968,30.277l-0.439,0.446c-3.11-1.333-7.11-2.672-9.775-2.672
	c-7.104,0-15.539,4.457-15.539,16.924c0,12.021,7.989,16.918,15.539,16.918c8.439,0,13.325-6.677,13.325-11.575
	c0-4.896-2.665-7.568-6.66-7.568c-3.554,0-4.885,2.672-4.885,4.898c0,2.224,0.885,5.338,5.331,4.896
	c-0.891,2.227-2.666,4.897-7.11,4.897c-5.77,0-11.544-4.456-11.544-12.467c0-8.461,5.329-12.913,11.544-12.913
	c2.219,0,6.22,0.888,10.66,2.672c4.885,1.779,17.764,5.343,25.759,5.343c8.44,0,23.094-5.343,27.533-20.481H110.802z M83.491,70.851
	c9.323,0,18.654-18.704,18.654-25.38c0-0.893,0-1.78-0.445-2.673c-1.78,3.119-5.33,7.57-10.659,10.243
	c-5.776,2.671-13.77,4.45-13.77,11.133C77.271,67.733,79.936,70.851,83.491,70.851z M119.464,75.3c0-5.782-4.885-17.81-5.773-22.707
	c-0.892-4.451-2.666-16.918-2.666-16.918s-1.774,12.467-2.665,16.918c-0.891,4.897-6.214,17.363-6.214,22.707
	c0,5.345,1.328,14.699,8.879,14.699C118.574,90,119.464,80.645,119.464,75.3z M130.118,52.593
	c-5.324-2.226-8.879-6.676-10.654-9.795c-0.444,0.893-0.444,1.78-0.444,2.673c0,6.676,9.324,25.38,18.654,25.38
	c3.548,0,6.214-3.118,6.214-6.678C143.888,57.491,135.894,55.711,130.118,52.593z"/>
</svg>
